<svg xmlns="http://www.w3.org/2000/svg"  width="86.93" height="86.93" viewBox="0 0 86.93 86.93">
  <defs>
    <filter id="Union_5" x="13.852" y="16.852" width="59.227" height="59.227" filterUnits="userSpaceOnUse">
      <feOffset dy="3" input="SourceAlpha"/>
      <feGaussianBlur stdDeviation="3" result="blur"/>
      <feFlood flood-opacity="0.22"/>
      <feComposite operator="in" in2="blur"/>
      <feComposite in="SourceGraphic"/>
    </filter>
  </defs>
  <g id="Group_2" data-name="Group 2" transform="translate(-539.374 -1833.003) rotate(45)">
    <g id="Ellipse_1" data-name="Ellipse 1" transform="translate(1708.258 884)" fill="rgba(255,255,255,0.55)" stroke="#fff" stroke-width="1">
      <circle cx="30.734" cy="30.734" r="30.734" stroke="none"/>
      <circle cx="30.734" cy="30.734" r="30.234" fill="none"/>
    </g>
    <g transform="matrix(0.71, -0.71, 0.71, 0.71, 1677.52, 914.73)" filter="url(#Union_5)">
      <path id="Union_5-2" data-name="Union 5" d="M11.364,25.31V16.529H2.583a2.583,2.583,0,1,1,0-5.165h8.781V2.583a2.583,2.583,0,1,1,5.166,0v8.781h9.3a2.583,2.583,0,0,1,0,5.165h-9.3V25.31a2.583,2.583,0,1,1-5.166,0Z" transform="translate(43.28 23.56) rotate(45)" fill="rgba(141,141,141,0.56)" stroke="rgba(141,141,141,0.56)" stroke-width="1"/>
    </g>
  </g>
</svg>